<?xml version="1.0" standalone="no"?>
<!DOCTYPE svg PUBLIC "-//W3C//DTD SVG 20010904//EN"
 "http://www.w3.org/TR/2001/REC-SVG-20010904/DTD/svg10.dtd">
<svg version="1.0" xmlns="http://www.w3.org/2000/svg"
 width="500.000000pt" height="500.000000pt" viewBox="0 0 500.000000 500.000000"
 preserveAspectRatio="xMidYMid meet">
<metadata>
Created by potrace 1.14, written by Peter Selinger 2001-2017
</metadata>
<g transform="translate(0.000000,500.000000) scale(0.100000,-0.100000)"
fill="#000000" stroke="none">
<path d="M1141 3920 c-68 -186 -150 -413 -176 -485 -83 -229 -184 -507 -450
-1240 -158 -434 -290 -798 -292 -807 -5 -17 39 -18 824 -18 l830 0 36 103 c19
56 52 147 72 202 20 55 54 147 75 205 20 58 46 130 57 160 11 30 44 120 73
200 29 80 55 151 59 158 4 7 14 -11 25 -45 9 -32 30 -98 46 -148 15 -49 51
-169 80 -265 29 -96 56 -184 60 -195 5 -11 27 -83 50 -160 23 -77 47 -157 54
-177 l11 -38 822 0 c563 0 824 3 828 11 4 5 0 24 -8 42 -8 18 -43 97 -77 177
-34 80 -72 168 -85 195 -12 28 -46 104 -74 170 -29 66 -59 134 -66 151 -37 81
-85 197 -85 203 0 4 29 9 63 10 81 2 157 22 199 52 32 22 312 263 353 304 65
64 103 149 222 490 121 349 62 564 -188 683 -56 27 -211 67 -299 78 -36 4
-732 8 -1547 8 l-1483 1 -9 -25z m1710 -616 c72 -42 75 -96 15 -268 -48 -138
-67 -169 -130 -221 -70 -57 -107 -68 -242 -71 l-121 -3 89 247 c49 136 96 267
105 292 l16 46 117 -1 c97 -1 123 -5 151 -21z"/>
</g>
</svg>
